<?xml version="1.0" encoding="utf-8"?>
<!-- Generator: Adobe Illustrator 24.3.0, SVG Export Plug-In . SVG Version: 6.00 Build 0)  -->
<svg version="1.1" id="Layer_1" xmlns="http://www.w3.org/2000/svg" xmlns:xlink="http://www.w3.org/1999/xlink" x="0px" y="0px"
	 viewBox="0 0 70 70" style="enable-background:new 0 0 70 70;" xml:space="preserve">
<style type="text/css">
	.st0{fill:none;stroke:#000000;stroke-width:2;stroke-miterlimit:10;}
	.st1{fill:#364958;}
	.st2{fill:none;stroke:#364958;stroke-width:3;stroke-miterlimit:10;}
	.st3{fill:none;stroke:#000000;stroke-width:3;stroke-miterlimit:10;}
	.st4{fill:#E0DDCF;}
	.st5{fill:none;stroke:#E0DDCF;stroke-width:2;stroke-miterlimit:10;}
	.st6{fill:none;stroke:#F6511D;stroke-width:15;stroke-linecap:round;stroke-miterlimit:10;stroke-dasharray:30;}
</style>
<path class="st1" d="M66.43,27.14h-3.41c-0.62-2.33-1.55-4.58-2.72-6.67l2.41-2.41c1.32-1.32,1.32-3.49,0-4.81l-6.21-6.21
	c-1.32-1.32-3.49-1.32-4.81,0l-2.41,2.41c-2.1-1.16-4.27-2.1-6.67-2.72l0-3.34c0.08-1.86-1.47-3.41-3.34-3.41h-8.69
	c-1.94,0-3.41,1.55-3.41,3.41v3.41c-2.33,0.62-4.58,1.55-6.67,2.72l-2.41-2.41c-1.32-1.32-3.49-1.32-4.81,0l-6.21,6.21
	c-1.32,1.32-1.32,3.49,0,4.81l2.41,2.41c-1.16,2.1-2.1,4.27-2.72,6.67l-3.34,0C1.47,27.14,0,28.69,0,30.56v8.77
	c0,1.78,1.47,3.34,3.41,3.34h3.41c0.62,2.33,1.55,4.58,2.72,6.67l-2.41,2.41c-1.32,1.32-1.32,3.49,0,4.81l6.21,6.21
	c1.32,1.32,3.49,1.32,4.81,0l2.41-2.41c2.1,1.16,4.27,2.1,6.67,2.72v3.41c0,1.86,1.55,3.41,3.41,3.41h8.77
	c1.86,0,3.41-1.55,3.41-3.41v-3.41c2.33-0.62,4.58-1.55,6.67-2.72l2.41,2.41c1.32,1.32,3.49,1.32,4.81,0l6.21-6.21
	c1.32-1.32,1.32-3.49,0-4.81l-2.41-2.41c1.16-2.1,2.1-4.27,2.72-6.67h3.41c1.86,0,3.41-1.55,3.41-3.41l0-8.69
	C69.84,28.69,68.29,27.14,66.43,27.14L66.43,27.14z M34.92,50.42c-8.54,0-15.52-6.98-15.52-15.52s6.98-15.52,15.52-15.52
	s15.52,6.98,15.52,15.52S43.46,50.42,34.92,50.42z"/>
</svg>
