<svg version="1.1" id="Layer_1" xmlns="http://www.w3.org/2000/svg" x="0" y="0" viewBox="0 0 206.11 167.11" style="enable-background:new 0 0 206.11 167.11"><path d="M135.35 75.53h-3.51c-.64-2.4-1.6-4.71-2.79-6.87l2.47-2.47a3.513 3.513 0 0 0 0-4.95l-6.39-6.39a3.513 3.513 0 0 0-4.95 0l-2.47 2.47c-2.16-1.2-4.39-2.16-6.87-2.79V51.1c.08-1.92-1.52-3.51-3.43-3.51h-8.94c-2 0-3.51 1.6-3.51 3.51v3.51c-2.4.64-4.71 1.6-6.87 2.79l-2.47-2.47a3.513 3.513 0 0 0-4.95 0l-6.39 6.39a3.513 3.513 0 0 0 0 4.95l2.47 2.47c-1.2 2.16-2.16 4.39-2.79 6.87h-3.43c-2-.08-3.51 1.52-3.51 3.43v9.02c0 1.84 1.52 3.43 3.51 3.43h3.51c.64 2.4 1.6 4.71 2.79 6.87l-2.47 2.47a3.513 3.513 0 0 0 0 4.95l6.39 6.39a3.513 3.513 0 0 0 4.95 0l2.47-2.47c2.16 1.2 4.39 2.16 6.87 2.79V116c0 1.92 1.6 3.51 3.51 3.51h9.02c1.92 0 3.51-1.6 3.51-3.51v-3.51c2.4-.64 4.71-1.6 6.87-2.79l2.47 2.47a3.513 3.513 0 0 0 4.95 0l6.39-6.39a3.513 3.513 0 0 0 0-4.95l-2.47-2.47c1.2-2.16 2.16-4.39 2.79-6.87h3.51c1.92 0 3.51-1.6 3.51-3.51v-8.94c-.24-1.91-1.84-3.51-3.75-3.51zm-32.41 23.95c-8.78 0-15.97-7.18-15.97-15.97s7.18-15.97 15.97-15.97 15.97 7.18 15.97 15.97-7.19 15.97-15.97 15.97z" style="fill:#364958"/></svg>