<svg version="1.1" id="Layer_1" xmlns="http://www.w3.org/2000/svg" x="0" y="0" viewBox="0 0 206.11 167.11" style="enable-background:new 0 0 206.11 167.11" xml:space="preserve">
    <style>
        .st0{fill:none;stroke:#000;stroke-width:2;stroke-miterlimit:10}.st1{fill:#364958}.st2,.st3{fill:none;stroke:#364958;stroke-width:3;stroke-miterlimit:10}.st3{stroke:#000}.st4{fill:#e0ddcf}.st5{fill:none;stroke:#e0ddcf;stroke-width:2;stroke-miterlimit:10}
    </style>
    <path d="M107.08 17.46h-8.04c-11.34 0-22.4 3.59-31.58 10.26l-6.51 4.73a53.67 53.67 0 0 0-19.51 26.86l-2.48 7.65a53.654 53.654 0 0 0 0 33.2l2.48 7.65a53.788 53.788 0 0 0 19.51 26.86l6.51 4.73a53.713 53.713 0 0 0 31.58 10.26h8.04c11.34 0 22.4-3.59 31.58-10.26l6.51-4.73a53.67 53.67 0 0 0 19.51-26.86l2.48-7.65a53.654 53.654 0 0 0 0-33.2l-2.48-7.65a53.788 53.788 0 0 0-19.51-26.86l-6.51-4.73a53.758 53.758 0 0 0-31.58-10.26z" style="fill:none;stroke:#f6511d;stroke-width:15;stroke-linecap:round;stroke-miterlimit:10;stroke-dasharray:30"/>
</svg>
