<?xml version="1.0" encoding="utf-8"?>
<!-- Generator: Adobe Illustrator 24.3.0, SVG Export Plug-In . SVG Version: 6.00 Build 0)  -->
<svg version="1.1" id="Layer_1" xmlns="http://www.w3.org/2000/svg" xmlns:xlink="http://www.w3.org/1999/xlink" x="0px" y="0px"
	 viewBox="0 0 206.11 167.11" style="enable-background:new 0 0 206.11 167.11;" xml:space="preserve">
<style type="text/css">
	.st0{fill:none;stroke:#000000;stroke-width:2;stroke-miterlimit:10;}
	.st1{fill:#364958;}
	.st2{fill:none;stroke:#364958;stroke-width:3;stroke-miterlimit:10;}
	.st3{fill:none;stroke:#000000;stroke-width:3;stroke-miterlimit:10;}
	.st4{fill:#E0DDCF;}
	.st5{fill:none;stroke:#E0DDCF;stroke-width:2;stroke-miterlimit:10;}
	.st6{fill:none;stroke:#F6511D;stroke-width:15;stroke-linecap:round;stroke-miterlimit:10;stroke-dasharray:30;}
</style>
<g>
	<line class="st3" x1="67.31" y1="82.56" x2="138.81" y2="82.56"/>
	<path class="st0" d="M122.31,70.06h-38c-2.2,0-4-1.8-4-4v-19c0-2.2,1.8-4,4-4h38c2.2,0,4,1.8,4,4v19
		C126.31,68.26,124.51,70.06,122.31,70.06z"/>
	<path class="st1" d="M122.31,124.06h-38c-2.2,0-4-1.8-4-4v-19c0-2.2,1.8-4,4-4h38c2.2,0,4,1.8,4,4v19
		C126.31,122.26,124.51,124.06,122.31,124.06z"/>
</g>
</svg>
